<mxfile host="app.diagrams.net" modified="2024-06-30T03:32:55.851Z" agent="Mozilla/5.0 (Windows NT 10.0; Win64; x64) AppleWebKit/537.36 (KHTML, like Gecko) Chrome/126.0.0.0 Safari/537.36" etag="2PX2ADXd6jclmB_hT9R-" version="24.6.4" type="device">
  <diagram id="C5RBs43oDa-KdzZeNtuy" name="Page-1">
    <mxGraphModel dx="2626" dy="946" grid="1" gridSize="10" guides="1" tooltips="1" connect="1" arrows="1" fold="1" page="1" pageScale="1" pageWidth="827" pageHeight="1169" math="0" shadow="0">
      <root>
        <mxCell id="WIyWlLk6GJQsqaUBKTNV-0" />
        <mxCell id="WIyWlLk6GJQsqaUBKTNV-1" parent="WIyWlLk6GJQsqaUBKTNV-0" />
        <mxCell id="eZ27SFT9c-3XRAADjgle-18" value="" style="edgeStyle=orthogonalEdgeStyle;rounded=0;orthogonalLoop=1;jettySize=auto;html=1;strokeWidth=2;" parent="WIyWlLk6GJQsqaUBKTNV-1" source="eZ27SFT9c-3XRAADjgle-0" target="eZ27SFT9c-3XRAADjgle-1" edge="1">
          <mxGeometry relative="1" as="geometry" />
        </mxCell>
        <mxCell id="eZ27SFT9c-3XRAADjgle-0" value="&lt;font style=&quot;font-size: 14px;&quot;&gt;Welcome page&lt;/font&gt;" style="rounded=1;whiteSpace=wrap;html=1;" parent="WIyWlLk6GJQsqaUBKTNV-1" vertex="1">
          <mxGeometry x="280" y="70" width="180" height="70" as="geometry" />
        </mxCell>
        <mxCell id="eZ27SFT9c-3XRAADjgle-35" value="" style="edgeStyle=orthogonalEdgeStyle;rounded=0;orthogonalLoop=1;jettySize=auto;html=1;strokeWidth=2;" parent="WIyWlLk6GJQsqaUBKTNV-1" source="eZ27SFT9c-3XRAADjgle-1" target="eZ27SFT9c-3XRAADjgle-26" edge="1">
          <mxGeometry relative="1" as="geometry" />
        </mxCell>
        <mxCell id="JdBe7RVcI7tT6JePGC-4-3" value="" style="edgeStyle=orthogonalEdgeStyle;rounded=0;orthogonalLoop=1;jettySize=auto;html=1;strokeWidth=2;" edge="1" parent="WIyWlLk6GJQsqaUBKTNV-1" target="eZ27SFT9c-3XRAADjgle-12">
          <mxGeometry relative="1" as="geometry">
            <mxPoint x="290" y="225" as="sourcePoint" />
          </mxGeometry>
        </mxCell>
        <mxCell id="eZ27SFT9c-3XRAADjgle-1" value="&lt;font style=&quot;font-size: 14px;&quot;&gt;Login Page&lt;/font&gt;" style="rounded=1;whiteSpace=wrap;html=1;" parent="WIyWlLk6GJQsqaUBKTNV-1" vertex="1">
          <mxGeometry x="280" y="190" width="180" height="70" as="geometry" />
        </mxCell>
        <mxCell id="JdBe7RVcI7tT6JePGC-4-9" value="" style="edgeStyle=orthogonalEdgeStyle;rounded=0;orthogonalLoop=1;jettySize=auto;html=1;strokeWidth=2;" edge="1" parent="WIyWlLk6GJQsqaUBKTNV-1" source="eZ27SFT9c-3XRAADjgle-2" target="JdBe7RVcI7tT6JePGC-4-1">
          <mxGeometry relative="1" as="geometry" />
        </mxCell>
        <mxCell id="JdBe7RVcI7tT6JePGC-4-17" style="edgeStyle=orthogonalEdgeStyle;rounded=0;orthogonalLoop=1;jettySize=auto;html=1;exitX=0.75;exitY=0;exitDx=0;exitDy=0;entryX=0;entryY=0.5;entryDx=0;entryDy=0;strokeWidth=2;" edge="1" parent="WIyWlLk6GJQsqaUBKTNV-1" source="eZ27SFT9c-3XRAADjgle-2" target="JdBe7RVcI7tT6JePGC-4-2">
          <mxGeometry relative="1" as="geometry">
            <Array as="points">
              <mxPoint x="415" y="520" />
            </Array>
          </mxGeometry>
        </mxCell>
        <mxCell id="JdBe7RVcI7tT6JePGC-4-46" style="edgeStyle=orthogonalEdgeStyle;rounded=0;orthogonalLoop=1;jettySize=auto;html=1;entryX=0.5;entryY=0;entryDx=0;entryDy=0;strokeWidth=2;" edge="1" parent="WIyWlLk6GJQsqaUBKTNV-1" source="eZ27SFT9c-3XRAADjgle-2" target="eZ27SFT9c-3XRAADjgle-5">
          <mxGeometry relative="1" as="geometry">
            <Array as="points">
              <mxPoint x="370" y="860" />
              <mxPoint x="250" y="860" />
            </Array>
          </mxGeometry>
        </mxCell>
        <mxCell id="JdBe7RVcI7tT6JePGC-4-48" style="edgeStyle=orthogonalEdgeStyle;rounded=0;orthogonalLoop=1;jettySize=auto;html=1;strokeWidth=2;" edge="1" parent="WIyWlLk6GJQsqaUBKTNV-1" source="eZ27SFT9c-3XRAADjgle-2" target="eZ27SFT9c-3XRAADjgle-4">
          <mxGeometry relative="1" as="geometry">
            <Array as="points">
              <mxPoint x="370" y="860" />
              <mxPoint x="490" y="860" />
            </Array>
          </mxGeometry>
        </mxCell>
        <mxCell id="eZ27SFT9c-3XRAADjgle-2" value="&lt;font style=&quot;font-size: 14px;&quot;&gt;Explore Page&lt;/font&gt;" style="rounded=1;whiteSpace=wrap;html=1;" parent="WIyWlLk6GJQsqaUBKTNV-1" vertex="1">
          <mxGeometry x="280" y="620" width="180" height="70" as="geometry" />
        </mxCell>
        <mxCell id="JdBe7RVcI7tT6JePGC-4-52" style="edgeStyle=orthogonalEdgeStyle;rounded=0;orthogonalLoop=1;jettySize=auto;html=1;entryX=0.5;entryY=1;entryDx=0;entryDy=0;strokeWidth=2;" edge="1" parent="WIyWlLk6GJQsqaUBKTNV-1" source="eZ27SFT9c-3XRAADjgle-3" target="eZ27SFT9c-3XRAADjgle-58">
          <mxGeometry relative="1" as="geometry" />
        </mxCell>
        <mxCell id="eZ27SFT9c-3XRAADjgle-3" value="&lt;font style=&quot;font-size: 14px;&quot;&gt;Messages Page&lt;/font&gt;" style="rounded=1;whiteSpace=wrap;html=1;" parent="WIyWlLk6GJQsqaUBKTNV-1" vertex="1">
          <mxGeometry x="-202.5" y="750" width="180" height="70" as="geometry" />
        </mxCell>
        <mxCell id="JdBe7RVcI7tT6JePGC-4-49" value="" style="edgeStyle=orthogonalEdgeStyle;rounded=0;orthogonalLoop=1;jettySize=auto;html=1;strokeWidth=2;" edge="1" parent="WIyWlLk6GJQsqaUBKTNV-1" source="eZ27SFT9c-3XRAADjgle-4" target="eZ27SFT9c-3XRAADjgle-55">
          <mxGeometry relative="1" as="geometry" />
        </mxCell>
        <mxCell id="eZ27SFT9c-3XRAADjgle-4" value="&lt;span style=&quot;font-size: 14px;&quot;&gt;Profile Page&lt;/span&gt;" style="rounded=1;whiteSpace=wrap;html=1;" parent="WIyWlLk6GJQsqaUBKTNV-1" vertex="1">
          <mxGeometry x="400" y="930" width="180" height="70" as="geometry" />
        </mxCell>
        <mxCell id="JdBe7RVcI7tT6JePGC-4-50" value="" style="edgeStyle=orthogonalEdgeStyle;rounded=0;orthogonalLoop=1;jettySize=auto;html=1;strokeWidth=2;" edge="1" parent="WIyWlLk6GJQsqaUBKTNV-1" source="eZ27SFT9c-3XRAADjgle-5" target="JdBe7RVcI7tT6JePGC-4-39">
          <mxGeometry relative="1" as="geometry" />
        </mxCell>
        <mxCell id="eZ27SFT9c-3XRAADjgle-5" value="&lt;span style=&quot;font-size: 14px;&quot;&gt;Matches Page&lt;/span&gt;" style="rounded=1;whiteSpace=wrap;html=1;" parent="WIyWlLk6GJQsqaUBKTNV-1" vertex="1">
          <mxGeometry x="160" y="930" width="180" height="70" as="geometry" />
        </mxCell>
        <mxCell id="eZ27SFT9c-3XRAADjgle-47" value="" style="edgeStyle=orthogonalEdgeStyle;rounded=0;orthogonalLoop=1;jettySize=auto;html=1;strokeWidth=2;" parent="WIyWlLk6GJQsqaUBKTNV-1" source="eZ27SFT9c-3XRAADjgle-12" target="eZ27SFT9c-3XRAADjgle-46" edge="1">
          <mxGeometry relative="1" as="geometry" />
        </mxCell>
        <mxCell id="eZ27SFT9c-3XRAADjgle-12" value="&lt;font style=&quot;font-size: 14px;&quot;&gt;Registration Page&lt;/font&gt;" style="rounded=1;whiteSpace=wrap;html=1;" parent="WIyWlLk6GJQsqaUBKTNV-1" vertex="1">
          <mxGeometry x="20" y="190" width="180" height="70" as="geometry" />
        </mxCell>
        <mxCell id="JdBe7RVcI7tT6JePGC-4-56" value="" style="edgeStyle=orthogonalEdgeStyle;rounded=0;orthogonalLoop=1;jettySize=auto;html=1;strokeWidth=2;" edge="1" parent="WIyWlLk6GJQsqaUBKTNV-1" source="eZ27SFT9c-3XRAADjgle-16" target="eZ27SFT9c-3XRAADjgle-0">
          <mxGeometry relative="1" as="geometry" />
        </mxCell>
        <mxCell id="eZ27SFT9c-3XRAADjgle-16" value="Start" style="ellipse;whiteSpace=wrap;html=1;" parent="WIyWlLk6GJQsqaUBKTNV-1" vertex="1">
          <mxGeometry x="27.5" y="67.5" width="180" height="75" as="geometry" />
        </mxCell>
        <mxCell id="eZ27SFT9c-3XRAADjgle-29" value="" style="edgeStyle=orthogonalEdgeStyle;rounded=0;orthogonalLoop=1;jettySize=auto;html=1;strokeWidth=2;" parent="WIyWlLk6GJQsqaUBKTNV-1" source="eZ27SFT9c-3XRAADjgle-19" target="eZ27SFT9c-3XRAADjgle-2" edge="1">
          <mxGeometry relative="1" as="geometry" />
        </mxCell>
        <mxCell id="eZ27SFT9c-3XRAADjgle-30" value="Yes" style="edgeLabel;html=1;align=center;verticalAlign=middle;resizable=0;points=[];" parent="eZ27SFT9c-3XRAADjgle-29" vertex="1" connectable="0">
          <mxGeometry x="-0.3999" y="-1" relative="1" as="geometry">
            <mxPoint as="offset" />
          </mxGeometry>
        </mxCell>
        <mxCell id="eZ27SFT9c-3XRAADjgle-41" style="edgeStyle=orthogonalEdgeStyle;rounded=0;orthogonalLoop=1;jettySize=auto;html=1;strokeWidth=2;" parent="WIyWlLk6GJQsqaUBKTNV-1" source="eZ27SFT9c-3XRAADjgle-19" target="eZ27SFT9c-3XRAADjgle-1" edge="1">
          <mxGeometry relative="1" as="geometry" />
        </mxCell>
        <mxCell id="eZ27SFT9c-3XRAADjgle-42" value="No" style="edgeLabel;html=1;align=center;verticalAlign=middle;resizable=0;points=[];" parent="eZ27SFT9c-3XRAADjgle-41" vertex="1" connectable="0">
          <mxGeometry x="0.0478" y="1" relative="1" as="geometry">
            <mxPoint as="offset" />
          </mxGeometry>
        </mxCell>
        <mxCell id="eZ27SFT9c-3XRAADjgle-19" value="Valid Login Info?" style="rhombus;whiteSpace=wrap;html=1;" parent="WIyWlLk6GJQsqaUBKTNV-1" vertex="1">
          <mxGeometry x="297.5" y="315" width="145" height="140" as="geometry" />
        </mxCell>
        <mxCell id="eZ27SFT9c-3XRAADjgle-37" value="" style="edgeStyle=orthogonalEdgeStyle;rounded=0;orthogonalLoop=1;jettySize=auto;html=1;strokeWidth=2;" parent="WIyWlLk6GJQsqaUBKTNV-1" source="eZ27SFT9c-3XRAADjgle-26" target="eZ27SFT9c-3XRAADjgle-34" edge="1">
          <mxGeometry relative="1" as="geometry" />
        </mxCell>
        <mxCell id="eZ27SFT9c-3XRAADjgle-26" value="User Inputs login&lt;div&gt;info&lt;/div&gt;" style="shape=parallelogram;perimeter=parallelogramPerimeter;whiteSpace=wrap;html=1;fixedSize=1;" parent="WIyWlLk6GJQsqaUBKTNV-1" vertex="1">
          <mxGeometry x="520" y="195" width="195" height="60" as="geometry" />
        </mxCell>
        <mxCell id="eZ27SFT9c-3XRAADjgle-36" style="edgeStyle=orthogonalEdgeStyle;rounded=0;orthogonalLoop=1;jettySize=auto;html=1;entryX=1;entryY=0.5;entryDx=0;entryDy=0;strokeWidth=2;" parent="WIyWlLk6GJQsqaUBKTNV-1" source="eZ27SFT9c-3XRAADjgle-34" target="eZ27SFT9c-3XRAADjgle-19" edge="1">
          <mxGeometry relative="1" as="geometry" />
        </mxCell>
        <mxCell id="eZ27SFT9c-3XRAADjgle-34" value="Check Database&lt;div&gt;For login info&lt;/div&gt;" style="shape=cylinder3;whiteSpace=wrap;html=1;boundedLbl=1;backgroundOutline=1;size=15;" parent="WIyWlLk6GJQsqaUBKTNV-1" vertex="1">
          <mxGeometry x="562.5" y="330" width="110" height="110" as="geometry" />
        </mxCell>
        <mxCell id="eZ27SFT9c-3XRAADjgle-49" value="" style="edgeStyle=orthogonalEdgeStyle;rounded=0;orthogonalLoop=1;jettySize=auto;html=1;strokeWidth=2;" parent="WIyWlLk6GJQsqaUBKTNV-1" source="eZ27SFT9c-3XRAADjgle-46" target="eZ27SFT9c-3XRAADjgle-48" edge="1">
          <mxGeometry relative="1" as="geometry" />
        </mxCell>
        <mxCell id="eZ27SFT9c-3XRAADjgle-46" value="User Inputs info like username&lt;div&gt;password etc&lt;/div&gt;" style="shape=parallelogram;perimeter=parallelogramPerimeter;whiteSpace=wrap;html=1;fixedSize=1;" parent="WIyWlLk6GJQsqaUBKTNV-1" vertex="1">
          <mxGeometry x="12.5" y="315" width="195" height="60" as="geometry" />
        </mxCell>
        <mxCell id="eZ27SFT9c-3XRAADjgle-50" style="edgeStyle=orthogonalEdgeStyle;rounded=0;orthogonalLoop=1;jettySize=auto;html=1;entryX=0.25;entryY=1;entryDx=0;entryDy=0;strokeWidth=2;" parent="WIyWlLk6GJQsqaUBKTNV-1" source="eZ27SFT9c-3XRAADjgle-48" target="eZ27SFT9c-3XRAADjgle-1" edge="1">
          <mxGeometry relative="1" as="geometry">
            <Array as="points">
              <mxPoint x="250" y="500" />
              <mxPoint x="250" y="320" />
              <mxPoint x="325" y="320" />
            </Array>
          </mxGeometry>
        </mxCell>
        <mxCell id="eZ27SFT9c-3XRAADjgle-51" value="Yes" style="edgeLabel;html=1;align=center;verticalAlign=middle;resizable=0;points=[];" parent="eZ27SFT9c-3XRAADjgle-50" vertex="1" connectable="0">
          <mxGeometry x="-0.5393" y="2" relative="1" as="geometry">
            <mxPoint y="1" as="offset" />
          </mxGeometry>
        </mxCell>
        <mxCell id="eZ27SFT9c-3XRAADjgle-52" style="edgeStyle=orthogonalEdgeStyle;rounded=0;orthogonalLoop=1;jettySize=auto;html=1;entryX=0;entryY=0.5;entryDx=0;entryDy=0;strokeWidth=2;" parent="WIyWlLk6GJQsqaUBKTNV-1" source="eZ27SFT9c-3XRAADjgle-48" target="eZ27SFT9c-3XRAADjgle-12" edge="1">
          <mxGeometry relative="1" as="geometry">
            <Array as="points">
              <mxPoint x="-10" y="500" />
              <mxPoint x="-10" y="225" />
            </Array>
          </mxGeometry>
        </mxCell>
        <mxCell id="eZ27SFT9c-3XRAADjgle-53" value="No" style="edgeLabel;html=1;align=center;verticalAlign=middle;resizable=0;points=[];" parent="eZ27SFT9c-3XRAADjgle-52" vertex="1" connectable="0">
          <mxGeometry x="-0.5887" y="3" relative="1" as="geometry">
            <mxPoint as="offset" />
          </mxGeometry>
        </mxCell>
        <mxCell id="eZ27SFT9c-3XRAADjgle-48" value="Meet requirements&lt;div&gt;such as being 18+&lt;/div&gt;" style="rhombus;whiteSpace=wrap;html=1;" parent="WIyWlLk6GJQsqaUBKTNV-1" vertex="1">
          <mxGeometry x="37.5" y="430" width="145" height="140" as="geometry" />
        </mxCell>
        <mxCell id="eZ27SFT9c-3XRAADjgle-55" value="Logout" style="ellipse;whiteSpace=wrap;html=1;" parent="WIyWlLk6GJQsqaUBKTNV-1" vertex="1">
          <mxGeometry x="660" y="927.5" width="180" height="75" as="geometry" />
        </mxCell>
        <mxCell id="JdBe7RVcI7tT6JePGC-4-53" value="" style="edgeStyle=orthogonalEdgeStyle;rounded=0;orthogonalLoop=1;jettySize=auto;html=1;strokeWidth=2;" edge="1" parent="WIyWlLk6GJQsqaUBKTNV-1" source="eZ27SFT9c-3XRAADjgle-58" target="JdBe7RVcI7tT6JePGC-4-35">
          <mxGeometry relative="1" as="geometry" />
        </mxCell>
        <mxCell id="eZ27SFT9c-3XRAADjgle-58" value="Users messages match" style="shape=parallelogram;perimeter=parallelogramPerimeter;whiteSpace=wrap;html=1;fixedSize=1;" parent="WIyWlLk6GJQsqaUBKTNV-1" vertex="1">
          <mxGeometry x="-210" y="625" width="195" height="60" as="geometry" />
        </mxCell>
        <mxCell id="JdBe7RVcI7tT6JePGC-4-11" value="" style="edgeStyle=orthogonalEdgeStyle;rounded=0;orthogonalLoop=1;jettySize=auto;html=1;strokeWidth=2;" edge="1" parent="WIyWlLk6GJQsqaUBKTNV-1" source="JdBe7RVcI7tT6JePGC-4-1" target="JdBe7RVcI7tT6JePGC-4-10">
          <mxGeometry relative="1" as="geometry" />
        </mxCell>
        <mxCell id="JdBe7RVcI7tT6JePGC-4-1" value="Users press X&lt;div&gt;(Not match)&lt;/div&gt;" style="shape=parallelogram;perimeter=parallelogramPerimeter;whiteSpace=wrap;html=1;fixedSize=1;" vertex="1" parent="WIyWlLk6GJQsqaUBKTNV-1">
          <mxGeometry x="12.5" y="625" width="195" height="60" as="geometry" />
        </mxCell>
        <mxCell id="JdBe7RVcI7tT6JePGC-4-20" value="" style="edgeStyle=orthogonalEdgeStyle;rounded=0;orthogonalLoop=1;jettySize=auto;html=1;strokeWidth=2;" edge="1" parent="WIyWlLk6GJQsqaUBKTNV-1" source="JdBe7RVcI7tT6JePGC-4-2" target="JdBe7RVcI7tT6JePGC-4-6">
          <mxGeometry relative="1" as="geometry" />
        </mxCell>
        <mxCell id="JdBe7RVcI7tT6JePGC-4-2" value="Users press Check&lt;div&gt;(Potential Match)&lt;/div&gt;" style="shape=parallelogram;perimeter=parallelogramPerimeter;whiteSpace=wrap;html=1;fixedSize=1;" vertex="1" parent="WIyWlLk6GJQsqaUBKTNV-1">
          <mxGeometry x="530" y="490" width="195" height="60" as="geometry" />
        </mxCell>
        <mxCell id="JdBe7RVcI7tT6JePGC-4-19" value="" style="edgeStyle=orthogonalEdgeStyle;rounded=0;orthogonalLoop=1;jettySize=auto;html=1;strokeWidth=2;" edge="1" parent="WIyWlLk6GJQsqaUBKTNV-1" source="JdBe7RVcI7tT6JePGC-4-6" target="JdBe7RVcI7tT6JePGC-4-18">
          <mxGeometry relative="1" as="geometry" />
        </mxCell>
        <mxCell id="JdBe7RVcI7tT6JePGC-4-6" value="Pull Match info" style="shape=cylinder3;whiteSpace=wrap;html=1;boundedLbl=1;backgroundOutline=1;size=15;" vertex="1" parent="WIyWlLk6GJQsqaUBKTNV-1">
          <mxGeometry x="807.5" y="400" width="110" height="110" as="geometry" />
        </mxCell>
        <mxCell id="JdBe7RVcI7tT6JePGC-4-12" style="edgeStyle=orthogonalEdgeStyle;rounded=0;orthogonalLoop=1;jettySize=auto;html=1;entryX=0.25;entryY=1;entryDx=0;entryDy=0;strokeWidth=2;" edge="1" parent="WIyWlLk6GJQsqaUBKTNV-1" source="JdBe7RVcI7tT6JePGC-4-10" target="eZ27SFT9c-3XRAADjgle-2">
          <mxGeometry relative="1" as="geometry" />
        </mxCell>
        <mxCell id="JdBe7RVcI7tT6JePGC-4-10" value="Pull next person" style="shape=cylinder3;whiteSpace=wrap;html=1;boundedLbl=1;backgroundOutline=1;size=15;" vertex="1" parent="WIyWlLk6GJQsqaUBKTNV-1">
          <mxGeometry x="55" y="730" width="110" height="110" as="geometry" />
        </mxCell>
        <mxCell id="JdBe7RVcI7tT6JePGC-4-27" value="" style="edgeStyle=orthogonalEdgeStyle;rounded=0;orthogonalLoop=1;jettySize=auto;html=1;strokeWidth=2;" edge="1" parent="WIyWlLk6GJQsqaUBKTNV-1" source="JdBe7RVcI7tT6JePGC-4-18" target="JdBe7RVcI7tT6JePGC-4-25">
          <mxGeometry relative="1" as="geometry" />
        </mxCell>
        <mxCell id="JdBe7RVcI7tT6JePGC-4-28" value="No" style="edgeLabel;html=1;align=center;verticalAlign=middle;resizable=0;points=[];" vertex="1" connectable="0" parent="JdBe7RVcI7tT6JePGC-4-27">
          <mxGeometry x="-0.5391" relative="1" as="geometry">
            <mxPoint as="offset" />
          </mxGeometry>
        </mxCell>
        <mxCell id="JdBe7RVcI7tT6JePGC-4-43" value="" style="edgeStyle=orthogonalEdgeStyle;rounded=0;orthogonalLoop=1;jettySize=auto;html=1;strokeWidth=2;" edge="1" parent="WIyWlLk6GJQsqaUBKTNV-1" source="JdBe7RVcI7tT6JePGC-4-18" target="JdBe7RVcI7tT6JePGC-4-42">
          <mxGeometry relative="1" as="geometry" />
        </mxCell>
        <mxCell id="JdBe7RVcI7tT6JePGC-4-44" value="Yes" style="edgeLabel;html=1;align=center;verticalAlign=middle;resizable=0;points=[];" vertex="1" connectable="0" parent="JdBe7RVcI7tT6JePGC-4-43">
          <mxGeometry x="-0.5611" relative="1" as="geometry">
            <mxPoint as="offset" />
          </mxGeometry>
        </mxCell>
        <mxCell id="JdBe7RVcI7tT6JePGC-4-18" value="Is it a Match" style="rhombus;whiteSpace=wrap;html=1;" vertex="1" parent="WIyWlLk6GJQsqaUBKTNV-1">
          <mxGeometry x="790" y="585" width="145" height="140" as="geometry" />
        </mxCell>
        <mxCell id="JdBe7RVcI7tT6JePGC-4-26" value="" style="edgeStyle=orthogonalEdgeStyle;rounded=0;orthogonalLoop=1;jettySize=auto;html=1;strokeWidth=2;" edge="1" parent="WIyWlLk6GJQsqaUBKTNV-1" source="JdBe7RVcI7tT6JePGC-4-25" target="eZ27SFT9c-3XRAADjgle-2">
          <mxGeometry relative="1" as="geometry" />
        </mxCell>
        <mxCell id="JdBe7RVcI7tT6JePGC-4-25" value="Pull next person" style="shape=cylinder3;whiteSpace=wrap;html=1;boundedLbl=1;backgroundOutline=1;size=15;" vertex="1" parent="WIyWlLk6GJQsqaUBKTNV-1">
          <mxGeometry x="562.5" y="600" width="110" height="110" as="geometry" />
        </mxCell>
        <mxCell id="JdBe7RVcI7tT6JePGC-4-29" value="Add match to database" style="shape=cylinder3;whiteSpace=wrap;html=1;boundedLbl=1;backgroundOutline=1;size=15;" vertex="1" parent="WIyWlLk6GJQsqaUBKTNV-1">
          <mxGeometry x="562.5" y="770" width="110" height="110" as="geometry" />
        </mxCell>
        <mxCell id="JdBe7RVcI7tT6JePGC-4-33" style="edgeStyle=orthogonalEdgeStyle;rounded=0;orthogonalLoop=1;jettySize=auto;html=1;exitX=0.5;exitY=0;exitDx=0;exitDy=0;exitPerimeter=0;entryX=0.5;entryY=1;entryDx=0;entryDy=0;entryPerimeter=0;strokeWidth=2;" edge="1" parent="WIyWlLk6GJQsqaUBKTNV-1" source="JdBe7RVcI7tT6JePGC-4-29" target="JdBe7RVcI7tT6JePGC-4-25">
          <mxGeometry relative="1" as="geometry" />
        </mxCell>
        <mxCell id="JdBe7RVcI7tT6JePGC-4-54" style="edgeStyle=orthogonalEdgeStyle;rounded=0;orthogonalLoop=1;jettySize=auto;html=1;entryX=0;entryY=0.5;entryDx=0;entryDy=0;strokeWidth=2;" edge="1" parent="WIyWlLk6GJQsqaUBKTNV-1" source="JdBe7RVcI7tT6JePGC-4-35" target="eZ27SFT9c-3XRAADjgle-3">
          <mxGeometry relative="1" as="geometry">
            <Array as="points">
              <mxPoint x="-240" y="510" />
              <mxPoint x="-240" y="785" />
            </Array>
          </mxGeometry>
        </mxCell>
        <mxCell id="JdBe7RVcI7tT6JePGC-4-35" value="Add message to database" style="shape=cylinder3;whiteSpace=wrap;html=1;boundedLbl=1;backgroundOutline=1;size=15;" vertex="1" parent="WIyWlLk6GJQsqaUBKTNV-1">
          <mxGeometry x="-167.5" y="455" width="110" height="110" as="geometry" />
        </mxCell>
        <mxCell id="JdBe7RVcI7tT6JePGC-4-55" style="edgeStyle=orthogonalEdgeStyle;rounded=0;orthogonalLoop=1;jettySize=auto;html=1;entryX=0.5;entryY=1;entryDx=0;entryDy=0;strokeWidth=2;" edge="1" parent="WIyWlLk6GJQsqaUBKTNV-1" source="JdBe7RVcI7tT6JePGC-4-39" target="eZ27SFT9c-3XRAADjgle-3">
          <mxGeometry relative="1" as="geometry">
            <Array as="points">
              <mxPoint x="-112" y="960" />
            </Array>
          </mxGeometry>
        </mxCell>
        <mxCell id="JdBe7RVcI7tT6JePGC-4-39" value="Select a Match" style="shape=parallelogram;perimeter=parallelogramPerimeter;whiteSpace=wrap;html=1;fixedSize=1;" vertex="1" parent="WIyWlLk6GJQsqaUBKTNV-1">
          <mxGeometry x="-90" y="935" width="195" height="60" as="geometry" />
        </mxCell>
        <mxCell id="JdBe7RVcI7tT6JePGC-4-45" value="" style="edgeStyle=orthogonalEdgeStyle;rounded=0;orthogonalLoop=1;jettySize=auto;html=1;strokeWidth=2;" edge="1" parent="WIyWlLk6GJQsqaUBKTNV-1" source="JdBe7RVcI7tT6JePGC-4-42" target="JdBe7RVcI7tT6JePGC-4-29">
          <mxGeometry relative="1" as="geometry" />
        </mxCell>
        <mxCell id="JdBe7RVcI7tT6JePGC-4-42" value="&lt;font style=&quot;font-size: 14px;&quot;&gt;Tell them its a match&lt;/font&gt;" style="rounded=1;whiteSpace=wrap;html=1;" vertex="1" parent="WIyWlLk6GJQsqaUBKTNV-1">
          <mxGeometry x="772.5" y="790" width="180" height="70" as="geometry" />
        </mxCell>
      </root>
    </mxGraphModel>
  </diagram>
</mxfile>
